<svg width="1024" height="1024" viewBox="0 0 1024 1024" fill="none" xmlns="http://www.w3.org/2000/svg">
<path d="M554.666 566C554.666 571.523 559.144 576 564.666 576H636.333C650.14 576 661.333 587.193 661.333 601V636.333C661.333 650.141 650.14 661.333 636.333 661.333H564.666C559.144 661.333 554.666 665.811 554.666 671.333V743C554.666 756.807 543.474 768 529.666 768H494.333C480.526 768 469.333 756.807 469.333 743V671.333C469.333 665.811 464.856 661.333 459.333 661.333H387.666C373.859 661.333 362.667 650.141 362.667 636.333V601C362.667 587.193 373.859 576 387.667 576H459.333C464.856 576 469.333 571.523 469.333 566V494.333C469.333 480.526 480.526 469.333 494.333 469.333H529.666C543.474 469.333 554.666 480.526 554.666 494.334V566Z" fill="black"/>
</svg>
